/* XPM */
static char *result[] = {
/* columns rows colors chars-per-pixel */
"50 50 182 2 ",
"   c #22242E",
".  c #22252E",
"X  c #25262E",
"o  c #272830",
"O  c #262831",
"+  c #272931",
"@  c #262832",
"#  c #252B32",
"$  c #262B32",
"%  c #272A33",
"&  c #262D34",
"*  c #272D34",
"=  c #282832",
"-  c #282932",
";  c #282933",
":  c #292B33",
">  c #292934",
",  c #2A2B34",
"<  c #2B2B34",
"1  c #292B36",
"2  c #2B2C34",
"3  c #2B2E35",
"4  c #292C36",
"5  c #2A2D37",
"6  c #2C2D35",
"7  c #2C2E37",
"8  c #2D2F37",
"9  c #2E2E36",
"0  c #2F2F37",
"q  c #2C2E38",
"w  c #2E2E38",
"e  c #302B31",
"r  c #2A3237",
"t  c #2C3137",
"y  c #2C3338",
"u  c #2C3439",
"i  c #2E3439",
"p  c #2E353B",
"a  c #2F313D",
"s  c #2F393C",
"d  c #3A3030",
"f  c #393133",
"g  c #3D3230",
"h  c #3E3231",
"j  c #31323B",
"k  c #33333A",
"l  c #34343B",
"z  c #30333C",
"x  c #31333D",
"c  c #32333D",
"v  c #34343F",
"b  c #34353F",
"n  c #333C3E",
"m  c #423431",
"M  c #443431",
"N  c #543E34",
"B  c #564035",
"V  c #574135",
"C  c #5C4337",
"Z  c #634738",
"A  c #6B4D3A",
"S  c #6F4E3D",
"D  c #714F3A",
"F  c #77533B",
"G  c #353842",
"H  c #3A3E48",
"J  c #324343",
"K  c #39504B",
"L  c #3C5B53",
"P  c #3D5F55",
"I  c #444147",
"U  c #47454A",
"Y  c #40424D",
"T  c #5F4E47",
"R  c #444753",
"E  c #414654",
"W  c #414755",
"Q  c #464A53",
"!  c #4C4E58",
"~  c #4C525F",
"^  c #575356",
"/  c #5A5558",
"(  c #665248",
")  c #67544C",
"_  c #685348",
"`  c #635652",
"'  c #6F5E57",
"]  c #605C5D",
"[  c #635D5E",
"{  c #635E5F",
"}  c #416D5D",
"|  c #545B6B",
" . c #466F61",
".. c #586560",
"X. c #556F64",
"o. c #427261",
"O. c #4A7566",
"+. c #4E7767",
"@. c #547366",
"#. c #587569",
"$. c #5C756B",
"%. c #586172",
"&. c #596273",
"*. c #5B6476",
"=. c #5D6677",
"-. c #666872",
";. c #626B7D",
":. c #626C7E",
">. c #727771",
",. c #7A7171",
"<. c #7E7574",
"1. c #777974",
"2. c #7B7B77",
"3. c #83593E",
"4. c #8B5E40",
"5. c #A16C43",
"6. c #A46C44",
"7. c #A96F45",
"8. c #AB7145",
"9. c #AF7246",
"0. c #B37547",
"q. c #B47648",
"w. c #B77748",
"e. c #87776E",
"r. c #807A7A",
"t. c #867E7B",
"y. c #50816D",
"u. c #52846F",
"i. c #4C8F73",
"p. c #538C73",
"a. c #549277",
"s. c #529B7B",
"d. c #529E7D",
"f. c #549F7E",
"g. c #646E81",
"h. c #666F82",
"j. c #6C788B",
"k. c #6E7A8D",
"l. c #758297",
"z. c #788498",
"x. c #54A380",
"c. c #56A883",
"v. c #59AC86",
"b. c #5AAE88",
"n. c #5AB28A",
"m. c #5CB38B",
"M. c #5CB58C",
"N. c #5DB88E",
"B. c #5FBB90",
"V. c #5FBC91",
"C. c #5FBD91",
"Z. c #60A083",
"A. c #60BE92",
"S. c #7F8BA1",
"D. c #898A82",
"F. c #988D88",
"G. c #998E89",
"H. c #A4958D",
"J. c #A0988F",
"K. c #A39790",
"L. c #ADA099",
"P. c #B0A29A",
"I. c #B3A49C",
"U. c #808DA4",
"Y. c #8693AA",
"T. c #8695AB",
"R. c #8997AE",
"E. c #8C9AB1",
"W. c #8F9EB6",
"Q. c #B8A9A0",
"!. c #BBACA2",
"~. c #B6B3A6",
"^. c #CDBDB1",
"/. c #CFBDB2",
"(. c #D0BEB3",
"). c #D5C3B7",
"_. c #DECBBE",
"`. c #E5D1C3",
"'. c #E3D2C5",
"]. c #E9D5C6",
"[. c #EAD6C7",
"{. c None",
/* pixels */
"{.{.{.{.{.{.{.{.{.{.{.{.{.{.{.{.{.{.{.{.{.{.{.{.{.{.{.{.{.{.{.{.{.{.{.{.{.{.{.{.{.{.{.{.{.{.{.{.{.{.",
"{.{.{.{.{.{.{.{.{.{.{.{.{.{.{.{.{.{.{.{.{.{.{.{.{.{.{.{.{.{.{.{.{.{.{.{.{.{.{.{.{.{.{.{.{.{.{.{.{.{.",
"{.{.{.{.{.{.{.{.{.{.{.{.{.{.{.{.{.{.{.{.{.{.{.{.{.{.{.{.{.{.{.{.{.{.{.{.{.{.{.{.{.{.{.{.{.{.{.{.{.{.",
"{.{.{.{.{.{.{.{.{.{.{.{.{.{.{.{.{.{.{.{.{.{.{.{.{.{.{.{.{.{.{.{.{.{.{.{.{.{.{.{.{.{.{.{.{.{.{.{.{.{.",
"{.{.{.{.{.{.{.{.{.{.{.{.{.{.{.{.{.{.{.{.{.{.{.{.d M g {.{.{.{.{.{.{.{.{.{.{.{.{.{.{.{.{.{.{.{.{.{.{.",
"{.{.{.{.{.{.{.{.{.{.{.{.{.{.{.{.{.{.{.{.{.{.{.V 8.w.7.C {.{.{.{.{.{.{.{.{.{.{.{.{.{.{.{.{.{.{.{.{.{.",
"{.{.{.{.{.{.{.{.{.{.{.{.{.{.{.{.{.{.{.{.{.{.Z q.w.w.w.w.3.m {.{.{.{.{.{.{.{.{.{.{.{.{.{.{.{.{.{.{.{.",
"{.{.{.{.{.{.{.{.{.{.{.{.{.{.{.{.{.{.{.{.{.D 4.5.w.w.0.A 9.h {.{.{.{.{.{.{.{.{.{.{.{.{.{.{.{.{.{.{.{.",
"{.{.{.{.{.{.{.{.{.{.{.{.{.{.{.{.{.{.{.{.{.6.T e.) ( ' !.S N {.{.{.{.{.{.{.{.{.{.{.{.{.{.{.{.{.{.{.{.",
"{.{.{.{.{.{.{.{.{.{.{.{.{.{.{.{.{.{.{.{.{.F H.[.[.[.[.[._ B {.{.{.{.{.{.{.{.{.{.{.{.{.{.{.{.{.{.{.{.",
"{.{.{.{.{.{.{.{.{.{.{.{.{.{.{.{.{.{.{.{.{.e /.[.[.[.[.[.` f {.{.{.{.{.{.{.{.{.{.{.{.{.{.{.{.{.{.{.{.",
"{.{.{.{.{.{.{.{.{.{.{.{.{.{.{.{.{.{.{.{.{.^ ].[.[.[.[.[.Q.2 {.{.{.{.{.{.{.{.{.{.{.{.{.{.{.{.{.{.{.{.",
"{.{.{.{.{.{.{.{.{.{.{.{.{.{.{.{.{.{.{.{.{.l `.[.[.[.[.[.K.8 {.{.{.{.{.{.{.{.{.{.{.{.{.{.{.{.{.{.{.{.",
"{.{.{.{.{.{.{.{.{.{.{.{.{.{.{.{.{.{.{.{.{.< L.[.[.[.[.[.U {.{.{.{.{.{.{.{.{.{.{.{.{.{.{.{.{.{.{.{.{.",
"{.{.{.{.{.{.{.{.{.{.{.{.{.{.{.{.{.{.{.{.{.{.0 ).[.[.[.,.o {.{.{.{.{.{.{.{.{.{.{.{.{.{.{.{.{.{.{.{.{.",
"{.{.{.{.{.{.{.{.{.{.{.{.{.{.{.{.{.{.{.{.{.{.- , t.G./ X {.{.{.{.{.{.{.{.{.{.{.{.{.{.{.{.{.{.{.{.{.{.",
"{.{.{.{.{.{.{.{.{.{.{.{.{.{.{.{.{.{.{.{.{.{.{.8 _.(.F.= {.{.{.{.{.{.{.{.{.{.{.{.{.{.{.{.{.{.{.{.{.{.",
"{.{.{.{.{.{.{.{.{.{.{.{.{.{.{.{.{.{.{.{.{.u * ..'.[.~.s $ 3 {.{.{.{.{.{.{.{.{.{.{.{.{.{.{.{.{.{.{.{.",
"{.{.{.{.{.{.{.{.{.{.{.{.{.{.{.{.{.{.{.y J i.V.f.o.a.s.B.v.} * {.{.{.{.{.{.{.{.{.{.{.{.{.{.{.{.{.{.{.",
"{.{.{.{.{.{.{.{.{.{.{.{.{.{.{.{.{.{.i P C.A.A.A.A.A.A.A.A.A.x.& {.{.{.{.{.{.{.{.{.{.{.{.{.{.{.{.{.{.",
"{.{.{.{.{.{.{.{.{.{.{.{.{.{.{.{.{.{.# N.A.A.A.A.A.A.A.A.A.A.A.o.t {.{.{.{.{.{.{.{.{.{.{.{.{.{.{.{.{.",
"{.{.{.{.{.{.{.{.{.{.{.{.{.{.{.{.{.{.K A.A.A.A.A.A.A.A.A.A.A.A.d.p {.{.{.{.{.{.{.{.{.{.{.{.{.{.{.{.{.",
"{.{.{.{.{.{.{.{.{.{.{.{.{.{.{.{.{.{.L A.A.A.A.A.A.A.A.A.A.A.A.c.r {.{.{.{.{.{.{.{.{.{.{.{.{.{.{.{.{.",
"{.{.{.{.{.{.{.{.{.{.{.{.{.{.{.{.{.{.n b.A.A.A.A.A.A.A.A.A.A.A.+.% {.{.{.{.{.{.{.{.{.{.{.{.{.{.{.{.{.",
"{.{.{.{.{.{.{.{.{.{.{.{.{.{.{.{.{.{.] >.p.A.A.A.A.A.A.A.A.M.X.J.2 {.{.{.{.{.{.{.{.{.{.{.{.{.{.{.{.{.",
"{.{.{.{.{.{.{.{.{.{.{.{.{.{.{.{.{.{.{ [.1.m.A.A.A.A.A.A.A.@._.^.2 {.{.{.{.{.{.{.{.{.{.{.{.{.{.{.{.{.",
"{.{.{.{.{.{.{.{.{.{.{.{.{.{.{.{.{.{.{ [.D.n.A.A.A.A.A.A.A.#.[.^.2 {.{.{.{.{.{.{.{.{.{.{.{.{.{.{.{.{.",
"{.{.{.{.{.{.{.{.{.{.{.{.{.{.{.{.{.{.{ [.D.n.A.A.A.A.A.A.A.#.[.^.2 {.{.{.{.{.{.{.{.{.{.{.{.{.{.{.{.{.",
"{.{.{.{.{.{.{.{.{.{.{.{.{.{.{.{.{.{.{ [.D.n.A.A.A.A.A.A.A.#.[.^.2 {.{.{.{.{.{.{.{.{.{.{.{.{.{.{.{.{.",
"{.{.{.{.{.{.{.{.{.{.{.{.{.{.{.{.{.{.[ [.D.n.A.A.A.A.A.A.A.#.[.^.2 {.{.{.{.{.{.{.{.{.{.{.{.{.{.{.{.{.",
"{.{.{.{.{.{.{.{.{.{.{.{.{.{.{.{.{.{.I [.2. .O.O.O.O.y.Z.u.$.[.P.9 {.{.{.{.{.{.{.{.{.{.{.{.{.{.{.{.{.",
"{.{.{.{.{.{.{.{.{.{.{.{.{.{.{.{.{.{.: <.r.T.W.W.W.W.W.W.W.-.I.k {.{.{.{.{.{.{.{.{.{.{.{.{.{.{.{.{.{.",
"{.{.{.{.{.{.{.{.{.{.{.{.{.{.{.{.{.{.{.6 . Y.W.W.W.W.W.W.W.Q ; {.{.{.{.{.{.{.{.{.{.{.{.{.{.{.{.{.{.{.",
"{.{.{.{.{.{.{.{.{.{.{.{.{.{.{.{.{.{.{.{.w S.W.W.W.E.W.W.W.! {.{.{.{.{.{.{.{.{.{.{.{.{.{.{.{.{.{.{.{.",
"{.{.{.{.{.{.{.{.{.{.{.{.{.{.{.{.{.{.{.{.j l.W.W.W.&.W.W.W.Y {.{.{.{.{.{.{.{.{.{.{.{.{.{.{.{.{.{.{.{.",
"{.{.{.{.{.{.{.{.{.{.{.{.{.{.{.{.{.{.{.{.v j.W.W.W.%.W.W.W.G {.{.{.{.{.{.{.{.{.{.{.{.{.{.{.{.{.{.{.{.",
"{.{.{.{.{.{.{.{.{.{.{.{.{.{.{.{.{.{.{.{.z g.W.W.W.%.W.W.W.5 {.{.{.{.{.{.{.{.{.{.{.{.{.{.{.{.{.{.{.{.",
"{.{.{.{.{.{.{.{.{.{.{.{.{.{.{.{.{.{.{.{.O *.W.W.W.%.W.W.W.  {.{.{.{.{.{.{.{.{.{.{.{.{.{.{.{.{.{.{.{.",
"{.{.{.{.{.{.{.{.{.{.{.{.{.{.{.{.{.{.{.{.{.| W.W.W.%.W.W.R.@ {.{.{.{.{.{.{.{.{.{.{.{.{.{.{.{.{.{.{.{.",
"{.{.{.{.{.{.{.{.{.{.{.{.{.{.{.{.{.{.{.{.{.~ W.W.W.%.W.W.U.q {.{.{.{.{.{.{.{.{.{.{.{.{.{.{.{.{.{.{.{.",
"{.{.{.{.{.{.{.{.{.{.{.{.{.{.{.{.{.{.{.{.{.R W.W.W.%.W.W.z.c {.{.{.{.{.{.{.{.{.{.{.{.{.{.{.{.{.{.{.{.",
"{.{.{.{.{.{.{.{.{.{.{.{.{.{.{.{.{.{.{.{.{.H W.W.W.%.W.W.k.b {.{.{.{.{.{.{.{.{.{.{.{.{.{.{.{.{.{.{.{.",
"{.{.{.{.{.{.{.{.{.{.{.{.{.{.{.{.{.{.{.{.{.a W.W.W.%.W.W.h.x {.{.{.{.{.{.{.{.{.{.{.{.{.{.{.{.{.{.{.{.",
"{.{.{.{.{.{.{.{.{.{.{.{.{.{.{.{.{.{.{.{.{.O W.W.W.%.W.W.=.1 {.{.{.{.{.{.{.{.{.{.{.{.{.{.{.{.{.{.{.{.",
"{.{.{.{.{.{.{.{.{.{.{.{.{.{.{.{.{.{.{.{.{.. ;.:.:.W :.:.E {.{.{.{.{.{.{.{.{.{.{.{.{.{.{.{.{.{.{.{.{.",
"{.{.{.{.{.{.{.{.{.{.{.{.{.{.{.{.{.{.{.{.{.+ 7 7 7 > 7 7 4 {.{.{.{.{.{.{.{.{.{.{.{.{.{.{.{.{.{.{.{.{.",
"{.{.{.{.{.{.{.{.{.{.{.{.{.{.{.{.{.{.{.{.{.{.{.{.{.{.{.{.{.{.{.{.{.{.{.{.{.{.{.{.{.{.{.{.{.{.{.{.{.{.",
"{.{.{.{.{.{.{.{.{.{.{.{.{.{.{.{.{.{.{.{.{.{.{.{.{.{.{.{.{.{.{.{.{.{.{.{.{.{.{.{.{.{.{.{.{.{.{.{.{.{.",
"{.{.{.{.{.{.{.{.{.{.{.{.{.{.{.{.{.{.{.{.{.{.{.{.{.{.{.{.{.{.{.{.{.{.{.{.{.{.{.{.{.{.{.{.{.{.{.{.{.{.",
"{.{.{.{.{.{.{.{.{.{.{.{.{.{.{.{.{.{.{.{.{.{.{.{.{.{.{.{.{.{.{.{.{.{.{.{.{.{.{.{.{.{.{.{.{.{.{.{.{.{."
};
