/* XPM */
static char *result[] = {
/* columns rows colors chars-per-pixel */
"50 50 103 2 ",
"   c #0E0701",
".  c #100801",
"X  c #140903",
"o  c #170B03",
"O  c #180B03",
"+  c #1D0E06",
"@  c #1E0E06",
"#  c #1E0F07",
"$  c #1F110A",
"%  c #210D05",
"&  c #230F07",
"*  c #241007",
"=  c #24140B",
"-  c #25150C",
";  c #2E1308",
":  c #2B150A",
">  c #2E1408",
",  c #2F150B",
"<  c #2A150C",
"1  c #2B170D",
"2  c #331509",
"3  c #351509",
"4  c #31190E",
"5  c #38180C",
"6  c #331B10",
"7  c #3C2216",
"8  c #3F2316",
"9  c #411E0F",
"0  c #50200E",
"q  c #56210F",
"w  c #56220F",
"e  c #462213",
"r  c #442214",
"t  c #462415",
"y  c #4B2617",
"u  c #4C2C1D",
"i  c #512311",
"p  c #542110",
"a  c #5C2A17",
"s  c #512E1E",
"d  c #512E1F",
"f  c #552D1D",
"g  c #5E2B18",
"h  c #5A2D1A",
"j  c #5A2D1B",
"k  c #5C2E1B",
"l  c #5E2E1B",
"z  c #592F1D",
"x  c #5D2E1C",
"c  c #6D2913",
"v  c #692D17",
"b  c #6F2E17",
"n  c #602C18",
"m  c #602D18",
"M  c #602C19",
"N  c #612D19",
"B  c #612D1A",
"V  c #622E1A",
"C  c #632E1A",
"Z  c #6F2E18",
"A  c #722B13",
"S  c #64301B",
"D  c #64301C",
"F  c #65311D",
"G  c #66321D",
"H  c #67321E",
"J  c #66331E",
"K  c #68341F",
"L  c #783017",
"P  c #793017",
"I  c #7B3117",
"U  c #7B331A",
"Y  c #553020",
"T  c #6A3622",
"R  c #6E3925",
"E  c #6E3A25",
"W  c #75402B",
"Q  c #76402B",
"!  c #76412B",
"~  c #77432D",
"^  c #79422D",
"/  c #79432E",
"(  c #7A442E",
")  c #7D4832",
"_  c #7E4833",
"`  c #7F4933",
"'  c #823116",
"]  c #853216",
"[  c #893316",
"{  c #8B3216",
"}  c #8A3316",
"|  c #8B3316",
" . c #8A3317",
".. c #8C3216",
"X. c #8C3316",
"o. c #8D3316",
"O. c #953C1F",
"+. c #963D21",
"@. c #9D4529",
"#. c #9A4D34",
"$. c #B66146",
"%. c #B86348",
"&. c #B96449",
/* pixels */
"a n n n n n n n n n L c $ _ ` ` ` ` ` ` ` ` ` K t : n n n n n n n n n n } ; s ` ` ` ` ` ` ` ` ` ( V ",
"g n n n n n n n n n L A = ` ` ` ` ` ` ` ` ` ` K y , n n n n n n n n n n | 3 Y ` ` ` ` ` ` ` ` ` ( M ",
"g n n n n n n n n n L A = ` ` ` ` ` ` ` ` ` ` K y , n n n n n n n n n n | 3 Y ` ` ` ` ` ` ` ` ` ( M ",
"g n n n n n n n n n L A = ` ` ` ` ` ` ` ` ` ` K y , n n n n n n n n n n | 3 Y ` ` ` ` ` ` ` ` ` ( M ",
"g n n n n n n n n n L A = ` ` ` ` ` ` ` ` ` ` K y , n n n n n n n n n n | 3 Y ` ` ` ` ` ` ` ` ` ( M ",
"g n n n n n n n n n L A = ` ` ` ` ` ` ` ` ` ` K y , n n n n n n n n n n | 3 Y ` ` ` ` ` ` ` ` ` ( M ",
"g n n n n n n n n n L A = ` ` ` ` ` ` ` ` ` ` K y , n n n n n n n n n n | 3 Y ` ` ` ` ` ` ` ` ` ( M ",
"g n n n n n n n n n L A = ` ` ` ` ` ` ` ` ` ` K y , n n n n n n n n n n | 3 Y ` ` ` ` ` ` ` ` ` ( M ",
"g n n n n n n n n n L A = ` ` ` ` ` ` ` ` ` ` K y , n n n n n n n n n n | 3 Y ` ` ` ` ` ` ` ` ` ( M ",
"g n n n n n n n n n L A = ` ` ` ` ` ` ` ` ` ` K y , n n n n n n n n n n | 3 Y ` ` ` ` ` ` ` ` ` ( M ",
"g n n n n n n n n n L A 1 R R R R R R R R R R C y , n n n n n n n n n n | 3 z R R R R R R R R R T M ",
"g n n n n n n n n n L A # x l l l l l l l l l l 6 , n n n n n n n n n n | 3 t l l l l l l l l l l j ",
"g n n n n n n n n n L A   + + + + + + + + + + > o , n n n n n n n n n n | 3 X + + + + + + + + * 5 e ",
"g n n n n n n n n n L A + n n n n n n n n n n ' w , n n n n n n n n n n | 3 9 n n n n n n n n Z O.%.",
"g n n n n n n n n n L A @ n n n n n n n n n n ' q , n n n n n n n n n n | 3 9 F m n n n n n n Z O.%.",
"g n n n n n n n n n L A @ n n n n n n n n n n ' q , n n n n n n n n n n | 3 9 E S n n n n n n Z O.%.",
"g n n n n n n n n n L A @ n n n n n n n n n n ' q , n n n n n n n n n n | 3 9 D M n n n n n n Z O.%.",
"g n n n n n n n n n L A @ n n n n n n n n n n ' q , n n n n n n n n n n | 3 9 Q J n n n n n n Z O.%.",
"g n n n n n n n n n L A @ n n n n n n n n n n ' q , n n n n n n n n n n | 3 9 ! H n n n n n n Z O.%.",
"g n n n n n n n n n L A @ n n n n n n n n n n ' q , n n n n n n n n n n | 3 9 ! H n n n n n n Z O.%.",
"g n n n n n n n n n L A @ n n n n n n n n n n ' q , n n n n n n n n n n | 3 9 ! H n n n n n n Z O.%.",
"g n n n n n n n n n L A @ n n n n n n n n n n ' q , n n n n n n n n n n | 3 9 ! H n n n n n n Z O.%.",
"g n n n n n n n n n L A @ n n n n n n n n n n ' q , n n n n n n n n n n | 3 9 ! H n n n n n n Z O.%.",
"g n n n n n n n n n L A @ n n n n n n n n n n ' q , n n n n n n n n n n | 3 9 ! H n n n n n n Z O.%.",
"g n n n n n n n n n L A @ n n n n n n n n n n ' q , n n n n n n n n n n | 3 9 ! H n n n n n n Z O.%.",
"g n n n n n n n n n L A @ n n n n n n n n n n ' q , n n n n n n n n n n | 3 9 ! H n n n n n n Z O.%.",
"g n n n n n n n n n L A @ n n n n n n n n n n ' q , n n n n n n n n n n | 3 9 ! H n n n n n n Z O.%.",
"g n n n n n n n n n L A @ n n n n n n n n n n ' q , n n n n n n n n n n | 3 9 ! H n n n n n n Z O.%.",
"g n n n n n n n n n P A @ n n n n n n n n n n ' q , n n n n n n n n n n ..3 9 ! H n n n n n n Z O.%.",
"[  . . . . . . . . .X.A @ n n n n n n n n n n ' q p  . . . . . . . . .{ o.2 9 ! H n n n n n n Z O.%.",
"> 2 2 2 2 2 2 2 2 2 2 % @ n n n n n n n n n n ' q O 2 2 2 2 2 2 2 2 2 2 2 . 9 ! H n n n n n n Z O.%.",
"u d d d d d d d d d f r @ n n n n n n n n n n ' q - d d d d d d d d d d j # 9 ! H n n n n n n Z O.%.",
") ` ` ` ` ` ` ` ` ` E k @ n n n n n n n n n n ' q 7 ` ` ` ` ` ` ` ` ` ` N 4 9 ! H n n n n n n Z O.%.",
") ` ` ` ` ` ` ` ` ` E k @ n n n n n n n n n n ' q 7 ` ` ` ` ` ` ` ` ` ` N 4 9 W G n n n n n n Z O.%.",
") ` ` ` ` ` ` ` ` ` E k @ n n n n n n n n n n ' q 7 ` ` ` ` ` ` ` ` ` ` N 4 9 N n n n n n n n Z O.%.",
") ` ` ` ` ` ` ` ` ` E k @ n n n n n n n n n n ' q 7 ` ` ` ` ` ` ` ` ` ` N 4 9 n n n n n n n n Z O.%.",
") ` ` ` ` ` ` ` ` ` E k @ n n n n n n n n n n ' q 7 ` ` ` ` ` ` ` ` ` ` N 4 9 n n n n n n n n Z O.%.",
") ` ` ` ` ` ` ` ` ` E k @ n n n n n n n n n n ' q 7 ` ` ` ` ` ` ` ` ` ` N 4 9 n n n n n n n n Z O.%.",
") ` ` ` ` ` ` ` ` ` E k @ n n n n n n n n n n ' q 7 ` ` ` ` ` ` ` ` ` ` N 4 9 n n n n n n n n Z O.%.",
") ` ` ` ` ` ` ` ` ` E k @ n n n n n n n n n n ' q 7 ` ` ` ` ` ` ` ` ` ` N 4 9 n n n n n n n n Z O.%.",
") ` ` ` ` ` ` ` ` ` E k @ n n n n n n n n n n ' q 7 ` ` ` ` ` ` ` ` ` ` N 4 9 n n n n n n n n Z O.%.",
") ` ` ` ` ` ` ` ` ` E k @ n n n n n n n n n n ' q 7 ` ` ` ` ` ` ` ` ` ` N 4 9 n n n n n n n n Z O.%.",
") ` ` ` ` ` ` ` ` ` E k @ n n n n n n n n n n ' q 7 ` ` ` ` ` ` ` ` ` ` N 4 9 n n n n n n n n Z O.%.",
") ` ` ` ` ` ` ` ` ` E k @ n n n n n n n n n n ' q 7 ` ` ` ` ` ` ` ` ` ` N 4 9 n n n n n n n n Z O.%.",
") ` ` ` ` ` ` ` ` ` E k @ n n n n n n n n n n ' q 7 ` ` ` ` ` ` ` ` ` ` N 4 9 n n n n n n n n Z O.%.",
") ` ` ` ` ` ` ` ` ` E k @ n n n n n n n n n n ' q 7 ` ` ` ` ` ` ` ` ` ` N 4 9 n n n n n n n n Z O.%.",
") ` ` ` ` ` ` ` ` ` E k @ n n n n n n n n n n ' q 7 ` ` ` ` ` ` ` ` ` ` N 4 9 n n n n n n n n Z O.%.",
") ` ` ` ` ` ` ` ` ` E k @ n n n n n n n n n n ' q 7 ` ` ` ` ` ` ` ` ` ` N 4 i b b b b b b b b I O.%.",
"~ / / / / / / / / / T k & v v v v v v v v v v ] q 8 / / / / / / / / / ^ M 4 U +.+.+.+.+.+.+.+.+.@.%.",
"B n n n n n n n n n n h ; o.o.o.o.o.o.o.o.o.o.o.0 t n n n n n n n n n n m < #.&.&.&.&.&.&.&.&.&.&.$."
};
