/* XPM */
static char *result[] = {
/* columns rows colors chars-per-pixel */
"50 50 131 2 ",
"   c #000001",
".  c #080807",
"X  c #05050B",
"o  c #08070E",
"O  c #0B0B0D",
"+  c #16030A",
"@  c #1A170C",
"#  c #060610",
"$  c #0A0714",
"%  c #0B0A13",
"&  c #0B0A1B",
"*  c #13121C",
"=  c #1B1A1B",
"-  c #272311",
";  c #2B2713",
":  c #322C16",
">  c #0E0C23",
",  c #100F2A",
"<  c #151323",
"1  c #13122D",
"2  c #19172D",
"3  c #19182E",
"4  c #151335",
"5  c #1C1A34",
"6  c #161439",
"7  c #19163E",
"8  c #1F1D3B",
"9  c #201F32",
"0  c #211F3C",
"q  c #2A2A2F",
"w  c #2A2A30",
"e  c #24223F",
"r  c #41081C",
"t  c #630C2B",
"y  c #695E2F",
"u  c #716632",
"i  c #756934",
"p  c #1A1741",
"a  c #1B1945",
"s  c #1E1B4C",
"d  c #221F40",
"f  c #211E54",
"g  c #231F58",
"h  c #242143",
"j  c #26234B",
"k  c #2D2B4F",
"l  c #272551",
"z  c #282554",
"x  c #2F2D53",
"c  c #25215D",
"v  c #29255C",
"b  c #312E55",
"n  c #36335E",
"m  c #262260",
"M  c #2A2665",
"N  c #2F2B6C",
"B  c #302C6D",
"V  c #383562",
"C  c #3E3A6B",
"Z  c #332F70",
"A  c #353074",
"S  c #383377",
"D  c #3A357A",
"F  c #58194E",
"G  c #44444D",
"H  c #474750",
"J  c #4A4A54",
"K  c #56545A",
"L  c #565662",
"P  c #5A5A67",
"I  c #5E5E6B",
"U  c #46427A",
"Y  c #61616E",
"T  c #646472",
"R  c #6B6B7A",
"E  c #70707F",
"W  c #830F39",
"Q  c #A09047",
"!  c #EFD66A",
"~  c #423D85",
"^  c #4B4783",
"/  c #454088",
"(  c #4A448E",
")  c #4E4A88",
"_  c #5A568C",
"`  c #4B4691",
"'  c #544F92",
"]  c #565297",
"[  c #5A549B",
"{  c #737385",
"}  c #7D7C8F",
"|  c #696696",
" . c #5A54A3",
".. c #5D58A8",
"X. c #635EAD",
"o. c #655EB1",
"O. c #6660B3",
"+. c #6963B7",
"@. c #746EBD",
"#. c #7974BF",
"$. c #807CB9",
"%. c #837EC5",
"&. c #8C8A91",
"*. c #8E8EA1",
"=. c #9191A5",
"-. c #9595A9",
";. c #918FB6",
":. c #9C9CB1",
">. c #A1A1B7",
",. c #A9A9BF",
"<. c #8580C6",
"1. c #8A85C9",
"2. c #9793D0",
"3. c #9A96D1",
"4. c #ADADC4",
"5. c #B4B4CD",
"6. c #AFAED2",
"7. c #A7A4DA",
"8. c #B6B6D5",
"9. c #BABAD3",
"0. c #B2B1DE",
"q. c #B5B3E1",
"w. c #BBBAE5",
"e. c #C1C1DB",
"r. c #C6C6E1",
"t. c #CACAE6",
"y. c #C5C5EB",
"u. c #CDCDE9",
"i. c #D2D2EE",
"p. c #D7D7F4",
"a. c None",
/* pixels */
"a.a.a.a.a.a.a.a.a.a.a.a.a.a.a.a.a.a.a.a.                    a.a.a.a.a.a.a.a.a.a.a.a.a.a.a.a.a.a.a.a.",
"a.a.a.a.a.a.a.a.a.a.a.a.a.a.a.a.a.a.a.    = J L L L L J =     a.a.a.a.a.a.a.a.a.a.a.a.a.a.a.a.a.a.a.",
"a.a.a.a.a.a.a.a.a.a.a.a.a.a.a.a.a.a.  * -.p.p.p.p.p.p.p.p.-.%   a.a.a.a.a.a.a.a.a.a.a.a.a.a.a.a.a.a.",
"a.a.a.a.a.a.a.a.a.a.a.a.a.a.a.a.a.  = e.p.p.p.p.p.p.p.p.p.p.9.%   a.a.a.a.a.a.a.a.a.a.a.a.a.a.a.a.a.",
"a.a.a.a.a.a.a.a.a.a.a.a.a.a.a.a.    >.p.p.p.p.p.p.p.p.p.p.p.p.|     a.a.a.a.a.a.a.a.a.a.a.a.a.a.a.a.",
"a.a.a.a.a.a.a.a.a.a.a.a.a.a.a.a.  q p.p.i.5.t.p.p.p.p.t.5.p.p.7.<   a.a.a.a.a.a.a.a.a.a.a.a.a.a.a.a.",
"a.            a.a.a.a.a.a.a.a.a.  I p.9.=   . &.p.p.&..   = 5.q.x   a.a.a.a.a.a.a.a.a.            a.",
"    0 V b <       a.a.a.a.a.a.a.  E p.G   y @ O i.i.. @ y   H q.n   a.a.a.a.a.a.a.      1 b V e     ",
"  2 +.+.+.+.' <     a.a.a.a.a.a.P 5.p.= - ! u   5.5.  u ! - = q.n   a.a.a.a.a.a.    < ] +.+.+.+.2   ",
"  5 S B A ~  .o.h     a.a.a.a.a.a.p.p.* ; ! i   5.5.  i ! ; * q.n   a.a.a.a.a.    h O. .~ A B A 5   ",
"    4 s s c m D X.C %       a.a.  { p.3 . Q :   t.t.  : Q . 5 q.n   a.a.      o C O.D m c s s 4     ",
"a.        & m m B ..X.C <         R p._ .     K p.p.K     . _ q.n         < C X...B m m &         a.",
"a.a.a.a.  X m m m M ( O.+.] x o   R p.#.[ C ) 0.p.p.q.) C [ #.7.n   o x ] +.O.` M m m m X   a.a.a.a.",
"a.a.a.a.    c m m m m M ~  .+.X.  J p.w.w.q.q.{ G G { 0.q.q.w.1.h   X.+.../ M m c c m c     a.a.a.a.",
"a.a.a.a.    f m m m m m m m B ( < % u.p.p.p.G         G p.p.y.o.o < ` A m m m m m m m f     a.a.a.a.",
"a.a.a.a.a.  p m m m m m m m m m 6   T p.p.9.  > c c &   9.p.<.b   6 m m m m m m m m m p   a.a.a.a.a.",
"a.a.a.a.a.  1 m m m m m m m m m c $   *.p.9.  1 c m ,   9.2.U   $ m m m m m m m m m m 1   a.a.a.a.a.",
"a.a.a.a.a.  & m m m m m m m m m c l X X 9.p.O $ F F $ O 0.[ X X g m m m m m m m m m m &   a.a.a.a.a.",
"a.a.a.a.a.    c m m m m m m m m m m a   G p.G   W W   G <.0   a m < h m m m m m m m g     a.a.a.a.a.",
"a.a.a.a.a.a.  4 m m m m m m m m m m m &   r.{   t t   { X.  & c m <   z m m m m m m 6   a.a.a.a.a.a.",
"a.a.a.a.a.a.  # m m m m m m m m z v m 6   =.4.  r r   ;.U   6 c m v   < m m m m m m #   a.a.a.a.a.a.",
"a.a.a.a.a.a.    s c m m m m m v o % c f   Y p.O + + O 3.b   f m m m e   v m m m m s     a.a.a.a.a.a.",
"a.a.a.a.a.a.a.  > m m m m m m 5   z m c X q p.R     R @.< X c m m m v   5 m m m m >   a.a.a.a.a.a.a.",
"a.a.a.a.a.a.a.    c m m m m v   5 m m m >   :.p.,.,.3.^   > m m m m m < o c m m g     a.a.a.a.a.a.a.",
"a.a.a.a.a.a.a.a.  a m m m m 2   v m m m f X O } 6.$.C X X f c v m m m h   v m m p   a.a.a.a.a.a.a.a.",
"a.a.a.a.a.a.a.a.  , m m m v   5 m m m m c s X         o s c 8 . v c m z   z m m 1   a.a.a.a.a.a.a.a.",
"a.a.a.a.a.a.a.a.  & m m m j   z m m m v h c c 6 > > 6 c m m z   5 M c v   j m m &   a.a.a.a.a.a.a.a.",
"a.a.a.a.a.a.a.a.  X m m m < X m m m m 2   v m m m m m m m m m 2   v c M h z m m X   a.a.a.a.a.a.a.a.",
"a.a.a.a.a.a.a.a.  X c m c X 3 m m m v   5 m m m j 5 m m m m m z   a v m m m m m X   a.a.a.a.a.a.a.a.",
"a.a.a.a.a.a.a.a.  X m m v   h m m m 5   c m m m 0   v m m m m m * X c m m m m m     a.a.a.a.a.a.a.a.",
"a.a.a.a.a.a.a.a.    m m z   l c c c X < m m m m z   j m m m m m j   z m m m m m     a.a.a.a.a.a.a.a.",
"a.a.a.a.a.a.a.a.a.> m m j   v m m v   j m m m m m . 1 m m m m m v   0 m m m m m X   a.a.a.a.a.a.a.a.",
"a.a.a.a.a.a.a.a.a.m m m v d M c m l   z m m m m m 5   v m m m m m % & M m m m m X   a.a.a.a.a.a.a.a.",
"a.a.a.a.a.a.a.a.a.> m m m m m m m j   v m m m m m z   d m m m m m z z c m m m m X   a.a.a.a.a.a.a.a.",
"a.a.a.a.a.a.a.a.    m m m m m m m h   v m m m m m m <   v m m m m m m m m m m m %   a.a.a.a.a.a.a.a.",
"a.a.a.a.a.a.a.a.    m m m m m m m h   v m m m m m m v   8 m m m m m m v c m m m &   a.a.a.a.a.a.a.a.",
"a.a.a.a.a.a.a.a.    m m m m m m m j 2 v m v z v m m m 1 e c m m m m m   5 c m m >   a.a.a.a.a.a.a.a.",
"a.a.a.a.a.a.a.a.    m m m m m m m m m m m z   z m m m m m c m m m m m h z m m m 4   a.a.a.a.a.a.a.a.",
"a.a.a.a.a.a.a.a.    f m m m m m m m m m m z   z m m m m m m m m m m m m c m m m 6   a.a.a.a.a.a.a.a.",
"a.a.a.a.a.a.a.a.a.  p m m m m m m m m m m z   z m m m m m m m m m m m 1 6 m m m a   a.a.a.a.a.a.a.a.",
"a.a.a.a.a.a.a.a.a.  > m m g & > m m m m m c c m m m m m m m X 5 m m c     f m m f     a.a.a.a.a.a.a.",
"a.a.a.a.a.a.a.a.a.    c c %   X m m m m m m s m m m m m m c 2 j m m f     X g c c     a.a.a.a.a.a.a.",
"a.a.a.a.a.a.a.a.a.a.  , %       c m m m m 6   p m m m m m m m m m m s       X f m $   a.a.a.a.a.a.a.",
"a.a.a.a.a.a.a.a.a.a.        a.  a m m m c X   & m m m m m m 4 a m m p   a.a.    , &   a.a.a.a.a.a.a.",
"a.a.a.a.a.a.a.a.a.a.a.    a.a.  , m m m 6       f m m m c p     p m 6   a.a.a.        a.a.a.a.a.a.a.",
"a.a.a.a.a.a.a.a.a.a.a.a.a.a.a.    g m c X   a.  > m m m c         p 1   a.a.a.a.a.    a.a.a.a.a.a.a.",
"a.a.a.a.a.a.a.a.a.a.a.a.a.a.a.a.  & c 6   a.a.    7 m m >   a.a.    #   a.a.a.a.a.a.a.a.a.a.a.a.a.a.",
"a.a.a.a.a.a.a.a.a.a.a.a.a.a.a.a.    4 X   a.a.a.    6 p     a.a.a.      a.a.a.a.a.a.a.a.a.a.a.a.a.a.",
"a.a.a.a.a.a.a.a.a.a.a.a.a.a.a.a.a.      a.a.a.a.a.        a.a.a.a.a.    a.a.a.a.a.a.a.a.a.a.a.a.a.a.",
"a.a.a.a.a.a.a.a.a.a.a.a.a.a.a.a.a.a.    a.a.a.a.a.a.    a.a.a.a.a.a.a.a.a.a.a.a.a.a.a.a.a.a.a.a.a.a."
};
