/* XPM */
static char *result[] = {
/* columns rows colors chars-per-pixel */
"50 50 119 2 ",
"   c #713004",
".  c #703105",
"X  c #733206",
"o  c #7B390F",
"O  c #7B3A11",
"+  c #8C3F0A",
"@  c #8C400B",
"#  c #8E410E",
"$  c #87471E",
"%  c #904310",
"&  c #914511",
"*  c #914512",
"=  c #944814",
"-  c #944916",
";  c #954A18",
":  c #964B18",
">  c #964C1A",
",  c #974C1A",
"<  c #964D1B",
"1  c #974D1B",
"2  c #984D1B",
"3  c #994F1D",
"4  c #9A4F1E",
"5  c #9A4F1F",
"6  c #9B501F",
"7  c #884820",
"8  c #924F28",
"9  c #9B5020",
"0  c #9B5120",
"q  c #9A5121",
"w  c #9B5121",
"e  c #9B5221",
"r  c #9B5323",
"t  c #9C5121",
"y  c #9D5222",
"u  c #9D5322",
"i  c #9E5223",
"p  c #9E5423",
"a  c #9D5324",
"s  c #9D5425",
"d  c #9E5526",
"f  c #9F5627",
"g  c #92522B",
"h  c #91542D",
"j  c #93552F",
"k  c #945730",
"l  c #955731",
"z  c #9A5731",
"x  c #985933",
"c  c #9B5933",
"v  c #9E5A35",
"b  c #9E5C36",
"n  c #A25627",
"m  c #A45A2C",
"M  c #A55C2E",
"N  c #A45E30",
"B  c #A15D38",
"V  c #A86134",
"C  c #AA6336",
"Z  c #B16E45",
"A  c #BD7951",
"S  c #BE7952",
"D  c #BF7F5A",
"F  c #C07B54",
"G  c #C57F5A",
"H  c #CF8F6C",
"J  c #D38E6D",
"K  c #D3906F",
"L  c #D59070",
"P  c #D89B7C",
"I  c #D99D7E",
"U  c #DA9D7E",
"Y  c #E59076",
"T  c #E59176",
"R  c #E69177",
"E  c #E8967D",
"W  c #E5A78B",
"Q  c #E5A88C",
"!  c #E6AA8D",
"~  c #E7AA8D",
"^  c #EDAB92",
"/  c #EFAC94",
"(  c #F0AC95",
")  c #F1AD96",
"_  c #F2AD97",
"`  c #E6B399",
"'  c #E7B39A",
"]  c #EBB399",
"[  c #E8B49B",
"{  c #E8B59C",
"}  c #E9B59C",
"|  c #F5B49D",
" . c #F5B49E",
".. c #EDB9A0",
"X. c #F8BAA4",
"o. c #F9BDA6",
"O. c #FABFA8",
"+. c #F8C0A9",
"@. c #F8C1A9",
"#. c #F8C0AA",
"$. c #FAC1AB",
"%. c #FBC2AB",
"&. c #FBC3AC",
"*. c #FBC3AD",
"=. c #FCC4AE",
"-. c #FCC4AF",
";. c #FCC6B0",
":. c #FCC6B1",
">. c #FDC7B1",
",. c #FDC8B3",
"<. c #FDC9B4",
"1. c #FECCB7",
"2. c #FECDB9",
"3. c #FECDBA",
"4. c #FECEBA",
"5. c #FFD1BE",
"6. c #FFD1BF",
"7. c #FFD2BF",
"8. c #FFD2C0",
/* pixels */
"@ 9 0 0 0 0 0 0 0 0 e m + > r r r r r r r r r N - & 0 0 0 0 0 0 0 0 0 d p + q r r r r r r r r r V X ",
"t =.=.=.=.=.=.=.=.=.*._ t ` 8.8.8.8.8.8.8.8.8.<.I A =.=.=.=.=.=.=.=.=.o./ ; 8.8.8.8.8.8.8.8.8.8.-.l ",
"y =.=.=.=.=.=.=.=.=.*._ p ' 8.8.8.8.8.8.8.8.8.<.U S =.=.=.=.=.=.=.=.=.o.( > 8.8.8.8.8.8.8.8.8.8.-.x ",
"y =.=.=.=.=.=.=.=.=.*._ p ' 8.8.8.8.8.8.8.8.8.<.U S =.=.=.=.=.=.=.=.=.o.( > 8.8.8.8.8.8.8.8.8.8.-.x ",
"y =.=.=.=.=.=.=.=.=.*._ p ' 8.8.8.8.8.8.8.8.8.<.U S =.=.=.=.=.=.=.=.=.o.( > 8.8.8.8.8.8.8.8.8.8.-.x ",
"y =.=.=.=.=.=.=.=.=.*._ p ' 8.8.8.8.8.8.8.8.8.<.U S =.=.=.=.=.=.=.=.=.o.( > 8.8.8.8.8.8.8.8.8.8.-.x ",
"y =.=.=.=.=.=.=.=.=.*._ p ' 8.8.8.8.8.8.8.8.8.<.U S =.=.=.=.=.=.=.=.=.o.( > 8.8.8.8.8.8.8.8.8.8.-.x ",
"y =.=.=.=.=.=.=.=.=.*._ p ' 8.8.8.8.8.8.8.8.8.<.U S =.=.=.=.=.=.=.=.=.o.( > 8.8.8.8.8.8.8.8.8.8.-.x ",
"y =.=.=.=.=.=.=.=.=.*._ p ' 8.8.8.8.8.8.8.8.8.<.U S =.=.=.=.=.=.=.=.=.o.( > 8.8.8.8.8.8.8.8.8.8.-.x ",
"y =.=.=.=.=.=.=.=.=.*._ p ' 8.8.8.8.8.8.8.8.8.<.U S =.=.=.=.=.=.=.=.=.o.( > 8.8.8.8.8.8.8.8.8.8.-.x ",
"y =.=.=.=.=.=.=.=.=.*._ p [ 6.6.6.6.6.6.6.6.6.,.U S =.=.=.=.=.=.=.=.=.o.( < 6.6.6.6.6.6.6.6.6.5.=.x ",
"y =.=.=.=.=.=.=.=.=.*._ p +.=.=.=.=.=.=.=.=.=.=.P S =.=.=.=.=.=.=.=.=.o.( u =.=.=.=.=.=.=.=.=.=.=.j ",
"y =.=.=.=.=.=.=.=.=.*._ p ; w w w w w w w w w w % S =.=.=.=.=.=.=.=.=.o.( + 3 w w w w w w w w w 5   ",
"y =.=.=.=.=.=.=.=.=.*._ p H ! ! ! ! ! ! ! ! ! ^ G S =.=.=.=.=.=.=.=.=.o.( * W ! ! ! ! ! ! ! ~ ( E 8 ",
"y =.=.=.=.=.=.=.=.=.*._ p Q =.=.=.=.=.=.=.=.=. .L S =.=.=.=.=.=.=.=.=.o.( : =.=.=.=.=.=.=.=.%._ R B ",
"y =.=.=.=.=.=.=.=.=.*._ p Q =.=.=.=.=.=.=.=.=. .L S =.=.=.=.=.=.=.=.=.o.( : ;.2.=.=.=.=.=.=.%._ R B ",
"y =.=.=.=.=.=.=.=.=.*._ p Q =.=.=.=.=.=.=.=.=. .L S =.=.=.=.=.=.=.=.=.o.( : =.-.=.=.=.=.=.=.%._ R B ",
"y =.=.=.=.=.=.=.=.=.*._ p Q =.=.=.=.=.=.=.=.=. .L S =.=.=.=.=.=.=.=.=.o.( : :.2.=.=.=.=.=.=.%._ R B ",
"y =.=.=.=.=.=.=.=.=.*._ p Q =.=.=.=.=.=.=.=.=. .L S =.=.=.=.=.=.=.=.=.o.( : >.4.=.=.=.=.=.=.%._ R B ",
"y =.=.=.=.=.=.=.=.=.*._ p Q =.=.=.=.=.=.=.=.=. .L S =.=.=.=.=.=.=.=.=.o.( : >.4.=.=.=.=.=.=.%._ R B ",
"y =.=.=.=.=.=.=.=.=.*._ p Q =.=.=.=.=.=.=.=.=. .L S =.=.=.=.=.=.=.=.=.o.( : >.4.=.=.=.=.=.=.%._ R B ",
"y =.=.=.=.=.=.=.=.=.*._ p Q =.=.=.=.=.=.=.=.=. .L S =.=.=.=.=.=.=.=.=.o.( : >.4.=.=.=.=.=.=.%._ R B ",
"y =.=.=.=.=.=.=.=.=.*._ p Q =.=.=.=.=.=.=.=.=. .L S =.=.=.=.=.=.=.=.=.o.( : >.4.=.=.=.=.=.=.%._ R B ",
"y =.=.=.=.=.=.=.=.=.*._ p Q =.=.=.=.=.=.=.=.=. .L S =.=.=.=.=.=.=.=.=.o.( : >.4.=.=.=.=.=.=.%._ R B ",
"y =.=.=.=.=.=.=.=.=.*._ p Q =.=.=.=.=.=.=.=.=. .L S =.=.=.=.=.=.=.=.=.o.( : >.4.=.=.=.=.=.=.%._ R B ",
"y =.=.=.=.=.=.=.=.=.*._ p Q =.=.=.=.=.=.=.=.=. .L S =.=.=.=.=.=.=.=.=.o.( : >.4.=.=.=.=.=.=.%._ R B ",
"y =.=.=.=.=.=.=.=.=.*._ p Q =.=.=.=.=.=.=.=.=. .L S =.=.=.=.=.=.=.=.=.o.( : >.4.=.=.=.=.=.=.%._ R B ",
"y =.=.=.=.=.=.=.=.=.*._ p Q =.=.=.=.=.=.=.=.=. .L S =.=.=.=.=.=.=.=.=.o.( : >.4.=.=.=.=.=.=.%._ R B ",
"i &.&.&.&.&.&.&.&.&.$._ p Q =.=.=.=.=.=.=.=.=. .L F &.&.&.&.&.&.&.&.&.X.( : >.4.=.=.=.=.=.=.%._ R B ",
"M _ _ _ _ _ _ _ _ _ _ _ 6 Q =.=.=.=.=.=.=.=.=. .L J _ _ _ _ _ _ _ _ _ _ / : >.4.=.=.=.=.=.=.%._ R B ",
"+ 2 4 4 4 4 4 4 4 4 4 , + Q =.=.=.=.=.=.=.=.=. .L # 4 4 4 4 4 4 4 4 4 4 = : >.4.=.=.=.=.=.=.%._ R B ",
"1 [ { { { { { { { { } #.2 Q =.=.=.=.=.=.=.=.=. .L Z { { { { { { { { { ..] : >.4.=.=.=.=.=.=.%._ R B ",
"s 8.8.8.8.8.8.8.8.8.7.=.f Q =.=.=.=.=.=.=.=.=. .L D 8.8.8.8.8.8.8.8.8.3.#.: >.4.=.=.=.=.=.=.%._ R B ",
"s 8.8.8.8.8.8.8.8.8.7.=.f Q =.=.=.=.=.=.=.=.=. .L D 8.8.8.8.8.8.8.8.8.3.#.: ;.1.=.=.=.=.=.=.%._ R B ",
"s 8.8.8.8.8.8.8.8.8.7.=.f Q =.=.=.=.=.=.=.=.=. .L D 8.8.8.8.8.8.8.8.8.3.#.: =.=.=.=.=.=.=.=.%._ R B ",
"s 8.8.8.8.8.8.8.8.8.7.=.f Q =.=.=.=.=.=.=.=.=. .L D 8.8.8.8.8.8.8.8.8.3.#.: =.=.=.=.=.=.=.=.%._ R B ",
"s 8.8.8.8.8.8.8.8.8.7.=.f Q =.=.=.=.=.=.=.=.=. .L D 8.8.8.8.8.8.8.8.8.3.#.: =.=.=.=.=.=.=.=.%._ R B ",
"s 8.8.8.8.8.8.8.8.8.7.=.f Q =.=.=.=.=.=.=.=.=. .L D 8.8.8.8.8.8.8.8.8.3.#.: =.=.=.=.=.=.=.=.%._ R B ",
"s 8.8.8.8.8.8.8.8.8.7.=.f Q =.=.=.=.=.=.=.=.=. .L D 8.8.8.8.8.8.8.8.8.3.#.: =.=.=.=.=.=.=.=.%._ R B ",
"s 8.8.8.8.8.8.8.8.8.7.=.f Q =.=.=.=.=.=.=.=.=. .L D 8.8.8.8.8.8.8.8.8.3.#.: =.=.=.=.=.=.=.=.%._ R B ",
"s 8.8.8.8.8.8.8.8.8.7.=.f Q =.=.=.=.=.=.=.=.=. .L D 8.8.8.8.8.8.8.8.8.3.#.: =.=.=.=.=.=.=.=.%._ R B ",
"s 8.8.8.8.8.8.8.8.8.7.=.f Q =.=.=.=.=.=.=.=.=. .L D 8.8.8.8.8.8.8.8.8.3.#.: =.=.=.=.=.=.=.=.%._ R B ",
"s 8.8.8.8.8.8.8.8.8.7.=.f Q =.=.=.=.=.=.=.=.=. .L D 8.8.8.8.8.8.8.8.8.3.#.: =.=.=.=.=.=.=.=.%._ R B ",
"s 8.8.8.8.8.8.8.8.8.7.=.f Q =.=.=.=.=.=.=.=.=. .L D 8.8.8.8.8.8.8.8.8.3.#.: =.=.=.=.=.=.=.=.%._ R B ",
"s 8.8.8.8.8.8.8.8.8.7.=.f Q =.=.=.=.=.=.=.=.=. .L D 8.8.8.8.8.8.8.8.8.3.#.: =.=.=.=.=.=.=.=.%._ R B ",
"s 8.8.8.8.8.8.8.8.8.7.=.f Q =.=.=.=.=.=.=.=.=. .L D 8.8.8.8.8.8.8.8.8.3.#.: =.=.=.=.=.=.=.=.%._ R B ",
"s 8.8.8.8.8.8.8.8.8.7.=.f Q =.=.=.=.=.=.=.=.=. .L D 8.8.8.8.8.8.8.8.8.3.#., $.$.$.$.$.$.$.$.O._ R B ",
"s 8.8.8.8.8.8.8.8.8.6.=.f Q =.=.=.=.=.=.=.=.=.| L D 8.8.8.8.8.8.8.8.8.3.#.p _ _ _ _ _ _ _ _ _ ) T B ",
"C =.=.=.=.=.=.=.=.=.=.=.a / _ _ _ _ _ _ _ _ _ _ K I =.=.=.=.=.=.=.=.=.=.@.n Y Y Y Y Y Y Y Y Y Y Y b ",
"X j k k k k k k k k k h   $ g g g g g g g g g g o O k k k k k k k k k k 7   z v v v v v v v v v c . "
};
